<svg width="24" height="24" viewBox="0 0 24 24" fill="none" xmlns="http://www.w3.org/2000/svg">
<g clip-path="url(#clip0_62_107)">
<path d="M8.75 22.425C7.98333 22.425 7.29583 22.225 6.6875 21.825C6.07917 21.425 5.60833 20.875 5.275 20.175C5.00833 20.525 4.67083 20.7958 4.2625 20.9875C3.85417 21.1792 3.43333 21.275 3 21.275C2.15 21.275 1.4375 20.9833 0.8625 20.4C0.2875 19.8167 0 19.1083 0 18.275C0 17.5583 0.233333 16.9125 0.7 16.3375C1.16667 15.7625 1.75833 15.4333 2.475 15.35C2.24167 15.0167 2.0625 14.6625 1.9375 14.2875C1.8125 13.9125 1.75 13.5167 1.75 13.1C1.75 12.4333 1.92083 11.8083 2.2625 11.225C2.60417 10.6417 3.08333 10.1667 3.7 9.79999C3.78333 10.1 3.89583 10.4208 4.0375 10.7625C4.17917 11.1042 4.34167 11.4 4.525 11.65C4.29167 11.8333 4.10833 12.0542 3.975 12.3125C3.84167 12.5708 3.775 12.8417 3.775 13.125C3.775 14.0583 4.15833 14.6333 4.925 14.85C5.69167 15.0667 6.41667 15.2417 7.1 15.375L7.575 16.175C7.39167 16.7083 7.23333 17.1625 7.1 17.5375C6.96667 17.9125 6.9 18.25 6.9 18.55C6.9 19.05 7.07917 19.4875 7.4375 19.8625C7.79583 20.2375 8.23333 20.425 8.75 20.425C9.28333 20.425 9.74167 20.2208 10.125 19.8125C10.5083 19.4042 10.8292 18.8958 11.0875 18.2875C11.3458 17.6792 11.5542 17.0333 11.7125 16.35C11.8708 15.6667 12 15.05 12.1 14.5C12.15 14.2167 12.2917 13.9958 12.525 13.8375C12.7583 13.6792 13.0083 13.6417 13.275 13.725C13.5583 13.8083 13.7708 13.975 13.9125 14.225C14.0542 14.475 14.0917 14.7417 14.025 15.025C13.875 15.7917 13.6833 16.6083 13.45 17.475C13.2167 18.3417 12.9042 19.1417 12.5125 19.875C12.1208 20.6083 11.6208 21.2167 11.0125 21.7C10.4042 22.1833 9.65 22.425 8.75 22.425ZM10.825 14.6C10.6083 14.8167 10.3458 14.9125 10.0375 14.8875C9.72917 14.8625 9.45833 14.7417 9.225 14.525C7.94167 13.3583 6.91667 12.3 6.15 11.35C5.38333 10.4 5 9.37499 5 8.27499C5 7.19165 5.37083 6.27915 6.1125 5.53749C6.85417 4.79582 7.76667 4.42499 8.85 4.42499C8.91667 4.42499 8.975 4.42915 9.025 4.43749C9.075 4.44582 9.13333 4.44999 9.2 4.44999C9.13333 4.28332 9.08333 4.11665 9.05 3.94999C9.01667 3.78332 9 3.60832 9 3.42499C9 2.59165 9.29167 1.88332 9.875 1.29999C10.4583 0.716654 11.1667 0.424988 12 0.424988C12.8333 0.424988 13.5417 0.716654 14.125 1.29999C14.7083 1.88332 15 2.59165 15 3.42499C15 3.60832 14.9833 3.77915 14.95 3.93749C14.9167 4.09582 14.8667 4.25832 14.8 4.42499H15.15C16.15 4.42499 17 4.74582 17.7 5.38749C18.4 6.02915 18.8167 6.82499 18.95 7.77499C18.65 7.72499 18.3125 7.69999 17.9375 7.69999C17.5625 7.69999 17.2167 7.71665 16.9 7.74999C16.7833 7.36665 16.5708 7.04999 16.2625 6.79999C15.9542 6.54999 15.5833 6.42499 15.15 6.42499C14.5667 6.42499 14.1125 6.59582 13.7875 6.93749C13.4625 7.27915 13.0167 7.77499 12.45 8.42499H11.525C10.9417 7.74165 10.4875 7.23749 10.1625 6.91249C9.8375 6.58749 9.4 6.42499 8.85 6.42499C8.31667 6.42499 7.875 6.59999 7.525 6.94999C7.175 7.29999 7 7.74165 7 8.27499C7 8.97499 7.32917 9.70415 7.9875 10.4625C8.64583 11.2208 9.53333 12.1083 10.65 13.125C10.8833 13.325 11.0208 13.5708 11.0625 13.8625C11.1042 14.1542 11.025 14.4 10.825 14.6ZM15.225 22.425C14.8583 22.425 14.4958 22.375 14.1375 22.275C13.7792 22.175 13.4333 22.0167 13.1 21.8C13.2833 21.5667 13.4667 21.2917 13.65 20.975C13.8333 20.6583 14 20.3667 14.15 20.1C14.3333 20.2167 14.5167 20.3 14.7 20.35C14.8833 20.4 15.0667 20.425 15.25 20.425C15.7833 20.425 16.2292 20.2375 16.5875 19.8625C16.9458 19.4875 17.125 19.0417 17.125 18.525C17.125 18.2083 17.0583 17.8667 16.925 17.5C16.7917 17.1333 16.6333 16.6833 16.45 16.15L16.925 15.35C17.625 15.2167 18.3542 15.0417 19.1125 14.825C19.8708 14.6083 20.25 14.0333 20.25 13.1C20.25 12.4333 20.0042 11.95 19.5125 11.65C19.0208 11.35 18.4833 11.2 17.9 11.2C17.3167 11.2 16.6417 11.3 15.875 11.5C15.1083 11.7 14.2333 11.9583 13.25 12.275C12.9667 12.3583 12.6917 12.3458 12.425 12.2375C12.1583 12.1292 11.9833 11.9333 11.9 11.65C11.8167 11.3667 11.8583 11.1 12.025 10.85C12.1917 10.6 12.4167 10.4333 12.7 10.35C13.75 10.0167 14.7 9.74165 15.55 9.52499C16.4 9.30832 17.1917 9.19999 17.925 9.19999C19.075 9.19999 20.0833 9.54165 20.95 10.225C21.8167 10.9083 22.25 11.8667 22.25 13.1C22.25 13.5167 22.1875 13.9125 22.0625 14.2875C21.9375 14.6625 21.7583 15.0167 21.525 15.35C22.2417 15.4333 22.8333 15.7625 23.3 16.3375C23.7667 16.9125 24 17.5583 24 18.275C24 19.1083 23.7125 19.8167 23.1375 20.4C22.5625 20.9833 21.85 21.275 21 21.275C20.5667 21.275 20.1458 21.1792 19.7375 20.9875C19.3292 20.7958 18.9917 20.525 18.725 20.175C18.3917 20.875 17.9208 21.425 17.3125 21.825C16.7042 22.225 16.0083 22.425 15.225 22.425Z" fill="black"/>
</g>
<defs>
<clipPath id="clip0_62_107">
<rect width="24" height="24" fill="white"/>
</clipPath>
</defs>
</svg>
