<svg width="18" height="18" viewBox="0 0 18 18" fill="none" xmlns="http://www.w3.org/2000/svg">
<path d="M2.72597 14.5756C2.34264 14.5756 2.01448 14.4391 1.7415 14.1661C1.46852 13.8931 1.33203 13.565 1.33203 13.1816V6.21195C1.33203 6.01448 1.39882 5.84895 1.53241 5.71536C1.666 5.58177 1.83153 5.51498 2.029 5.51498C2.22648 5.51498 2.39201 5.58177 2.52559 5.71536C2.65918 5.84895 2.72597 6.01448 2.72597 6.21195V13.1816H13.8775C14.075 13.1816 14.2405 13.2484 14.3741 13.382C14.5077 13.5156 14.5745 13.6811 14.5745 13.8786C14.5745 14.0761 14.5077 14.2416 14.3741 14.3752C14.2405 14.5088 14.075 14.5756 13.8775 14.5756H2.72597ZM5.51385 11.7877C5.13052 11.7877 4.80236 11.6512 4.52938 11.3782C4.2564 11.1053 4.11991 10.7771 4.11991 10.3938V4.81801C4.11991 4.43468 4.2564 4.10652 4.52938 3.83354C4.80236 3.56056 5.13052 3.42407 5.51385 3.42407H15.2714C15.6548 3.42407 15.9829 3.56056 16.2559 3.83354C16.5289 4.10652 16.6654 4.43468 16.6654 4.81801V10.3938C16.6654 10.7771 16.5289 11.1053 16.2559 11.3782C15.9829 11.6512 15.6548 11.7877 15.2714 11.7877H5.51385ZM6.90779 10.3938C6.90779 10.0104 6.7713 9.68228 6.49832 9.4093C6.22534 9.13632 5.89718 8.99983 5.51385 8.99983V10.3938H6.90779ZM13.8775 10.3938H15.2714V8.99983C14.8881 8.99983 14.5599 9.13632 14.287 9.4093C14.014 9.68228 13.8775 10.0104 13.8775 10.3938ZM10.3926 9.6968C10.9734 9.6968 11.4671 9.49352 11.8737 9.08695C12.2803 8.68039 12.4835 8.1867 12.4835 7.60589C12.4835 7.02508 12.2803 6.5314 11.8737 6.12483C11.4671 5.71826 10.9734 5.51498 10.3926 5.51498C9.81183 5.51498 9.31814 5.71826 8.91158 6.12483C8.50501 6.5314 8.30173 7.02508 8.30173 7.60589C8.30173 8.1867 8.50501 8.68039 8.91158 9.08695C9.31814 9.49352 9.81183 9.6968 10.3926 9.6968ZM5.51385 6.21195C5.89718 6.21195 6.22534 6.07546 6.49832 5.80248C6.7713 5.5295 6.90779 5.20134 6.90779 4.81801H5.51385V6.21195ZM15.2714 6.21195V4.81801H13.8775C13.8775 5.20134 14.014 5.5295 14.287 5.80248C14.5599 6.07546 14.8881 6.21195 15.2714 6.21195Z" fill="#C1C1C1"/>
</svg>
