<svg width="46" height="46" viewBox="0 0 46 46" fill="none" xmlns="http://www.w3.org/2000/svg">
<g id="fi_471664" clip-path="url(#clip0_47_127)">
<g id="Group">
<g id="Group_2">
<path id="Vector" d="M23 0C10.2879 0 0 10.2867 0 23C0 35.7119 10.2867 46 23 46C35.7121 46 46 35.7132 46 23C46 10.2879 35.7132 0 23 0ZM23 42.7907C12.0874 42.7907 3.20931 33.9127 3.20931 23C3.20931 12.0873 12.0874 3.20931 23 3.20931C33.9127 3.20931 42.7907 12.0873 42.7907 23C42.7907 33.9127 33.9127 42.7907 23 42.7907Z" fill="black"/>
</g>
</g>
<g id="Group_3">
<g id="Group_4">
<path id="Vector_2" d="M22.3185 29.1025C21.0469 29.1025 20.0176 30.1622 20.0176 31.4336C20.0176 32.675 21.0166 33.7649 22.3185 33.7649C23.6203 33.7649 24.6496 32.675 24.6496 31.4336C24.6496 30.1622 23.5899 29.1025 22.3185 29.1025Z" fill="black"/>
</g>
</g>
<g id="Group_5">
<g id="Group_6">
<path id="Vector_3" d="M22.7122 11.4521C18.6251 11.4521 16.748 13.8742 16.748 15.509C16.748 16.6898 17.7471 17.2348 18.5645 17.2348C20.1994 17.2348 19.5334 14.9035 22.6214 14.9035C24.1351 14.9035 25.3462 15.5696 25.3462 16.9623C25.3462 18.5971 23.6507 19.5356 22.6517 20.3832C21.7736 21.14 20.6233 22.3814 20.6233 24.985C20.6233 26.5593 21.0472 27.0134 22.2884 27.0134C23.7718 27.0134 24.0745 26.3474 24.0745 25.7721C24.0745 24.1978 24.1048 23.2896 25.77 21.9878C26.5874 21.352 29.1607 19.2933 29.1607 16.4475C29.1607 13.6017 26.5874 11.4521 22.7122 11.4521Z" fill="black"/>
</g>
</g>
</g>
<defs>
<clipPath id="clip0_47_127">
<rect width="46" height="46" fill="white"/>
</clipPath>
</defs>
</svg>
