<svg width="16" height="16" viewBox="0 0 16 16" fill="none" xmlns="http://www.w3.org/2000/svg">
<g id="key_FILL1_wght400_GRAD0_opsz24 1">
<path id="Vector" d="M4.66699 10C4.11144 10 3.63921 9.80556 3.25033 9.41667C2.86144 9.02778 2.66699 8.55556 2.66699 8C2.66699 7.44444 2.86144 6.97222 3.25033 6.58333C3.63921 6.19444 4.11144 6 4.66699 6C5.22255 6 5.69477 6.19444 6.08366 6.58333C6.47255 6.97222 6.66699 7.44444 6.66699 8C6.66699 8.55556 6.47255 9.02778 6.08366 9.41667C5.69477 9.80556 5.22255 10 4.66699 10ZM4.66699 12C5.52255 12 6.29477 11.7556 6.98366 11.2667C7.67255 10.7778 8.15588 10.1333 8.43366 9.33333H8.66699L9.53366 10.2C9.60033 10.2667 9.67255 10.3139 9.75033 10.3417C9.8281 10.3694 9.91144 10.3833 10.0003 10.3833C10.0892 10.3833 10.1725 10.3694 10.2503 10.3417C10.3281 10.3139 10.4003 10.2667 10.467 10.2L11.3337 9.33333L12.5003 10.25C12.567 10.3056 12.642 10.3472 12.7253 10.375C12.8087 10.4028 12.8948 10.4111 12.9837 10.4C13.0725 10.3889 13.1531 10.3639 13.2253 10.325C13.2975 10.2861 13.3614 10.2333 13.417 10.1667L14.917 8.45C14.9725 8.38333 15.0142 8.31111 15.042 8.23333C15.0698 8.15556 15.0837 8.07222 15.0837 7.98333C15.0837 7.89444 15.067 7.81389 15.0337 7.74167C15.0003 7.66944 14.9559 7.60556 14.9003 7.55L14.217 6.86667C14.1503 6.8 14.0753 6.75 13.992 6.71667C13.9087 6.68333 13.8225 6.66667 13.7337 6.66667H8.43366C8.16699 5.91111 7.69755 5.27778 7.02533 4.76667C6.3531 4.25556 5.56699 4 4.66699 4C3.55588 4 2.61144 4.38889 1.83366 5.16667C1.05588 5.94444 0.666992 6.88889 0.666992 8C0.666992 9.11111 1.05588 10.0556 1.83366 10.8333C2.61144 11.6111 3.55588 12 4.66699 12Z" fill="white"/>
</g>
</svg>
