<svg width="16" height="16" viewBox="0 0 16 16" fill="none" xmlns="http://www.w3.org/2000/svg">
<g id="mail_FILL1_wght400_GRAD0_opsz24 (10) 1">
<path id="Vector" d="M2.66634 13.3332C2.29967 13.3332 1.98579 13.2026 1.72467 12.9415C1.46356 12.6804 1.33301 12.3665 1.33301 11.9998V3.99984C1.33301 3.63317 1.46356 3.31928 1.72467 3.05817C1.98579 2.79706 2.29967 2.6665 2.66634 2.6665H13.333C13.6997 2.6665 14.0136 2.79706 14.2747 3.05817C14.5358 3.31928 14.6663 3.63317 14.6663 3.99984V11.9998C14.6663 12.3665 14.5358 12.6804 14.2747 12.9415C14.0136 13.2026 13.6997 13.3332 13.333 13.3332H2.66634ZM7.99967 8.54984C8.05523 8.54984 8.11356 8.5415 8.17467 8.52484C8.23579 8.50817 8.29412 8.48317 8.34967 8.44984L13.0663 5.49984C13.1552 5.44428 13.2219 5.37484 13.2663 5.2915C13.3108 5.20817 13.333 5.1165 13.333 5.0165C13.333 4.79428 13.2386 4.62762 13.0497 4.5165C12.8608 4.40539 12.6663 4.41095 12.4663 4.53317L7.99967 7.33317L3.53301 4.53317C3.33301 4.41095 3.13856 4.40817 2.94967 4.52484C2.76079 4.6415 2.66634 4.80539 2.66634 5.0165C2.66634 5.12762 2.68856 5.22484 2.73301 5.30817C2.77745 5.3915 2.84412 5.45539 2.93301 5.49984L7.64967 8.44984C7.70523 8.48317 7.76356 8.50817 7.82467 8.52484C7.88579 8.5415 7.94412 8.54984 7.99967 8.54984Z" fill="white"/>
</g>
</svg>
