<svg width="19" height="20" viewBox="0 0 19 20" fill="none" xmlns="http://www.w3.org/2000/svg">
<path d="M9.54044 19.2467C8.1757 19.2467 6.93437 19.0289 5.81644 18.5933C4.69852 18.1578 3.7403 17.5407 2.94178 16.7422C2.14326 15.9437 1.52622 14.9855 1.09067 13.8676C0.655111 12.7496 0.437333 11.5083 0.437333 10.1436C0.437333 8.73526 0.66963 7.45037 1.13422 6.28889C1.61333 5.12741 2.28119 4.12563 3.13778 3.28356C3.99437 2.42696 5.00341 1.77363 6.16489 1.32356C7.32637 0.858963 8.604 0.626667 9.99778 0.626667C11.3625 0.626667 12.5748 0.851704 13.6347 1.30178C14.6945 1.73733 15.5874 2.34711 16.3133 3.13111C17.0538 3.91511 17.6127 4.81526 17.9902 5.83156C18.3677 6.84785 18.5564 7.92222 18.5564 9.05467C18.5564 9.99837 18.433 10.8477 18.1862 11.6027C17.9539 12.3576 17.6273 13.0037 17.2062 13.5409C16.7852 14.0636 16.3061 14.4701 15.7689 14.7604C15.2462 15.0363 14.7018 15.1742 14.1356 15.1742C13.3516 15.1742 12.7708 14.971 12.3933 14.5644C12.0304 14.1579 11.8779 13.6425 11.936 13.0182C11.6166 13.628 11.1375 14.1144 10.4987 14.4773C9.85985 14.8403 9.19926 15.0218 8.51689 15.0218C7.76193 15.0218 7.09407 14.8403 6.51333 14.4773C5.94711 14.1144 5.5043 13.6135 5.18489 12.9747C4.86548 12.3213 4.70578 11.5736 4.70578 10.7316C4.70578 9.91852 4.82919 9.16356 5.076 8.46667C5.32281 7.75526 5.664 7.13822 6.09956 6.61556C6.54963 6.07837 7.07956 5.66459 7.68933 5.37422C8.29911 5.06933 8.9597 4.91689 9.67111 4.91689C10.2373 4.91689 10.7455 5.01852 11.1956 5.22178C11.6456 5.41052 12.0231 5.68637 12.328 6.04933C12.6329 6.39778 12.8434 6.81881 12.9596 7.31244L13.4822 5.11289H15.0284L13.3733 12.2124C13.3443 12.3576 13.3153 12.4956 13.2862 12.6262C13.2717 12.7424 13.2644 12.8585 13.2644 12.9747C13.2644 13.3812 13.3661 13.6498 13.5693 13.7804C13.7871 13.8966 14.0267 13.9547 14.288 13.9547C14.8107 13.9547 15.297 13.7732 15.7471 13.4102C16.1972 13.0473 16.5601 12.5028 16.836 11.7769C17.1264 11.0364 17.2716 10.129 17.2716 9.05467C17.2716 8.03837 17.1046 7.09467 16.7707 6.22356C16.4367 5.35244 15.9504 4.59748 15.3116 3.95867C14.6873 3.30533 13.9323 2.80444 13.0467 2.456C12.161 2.09304 11.1665 1.91156 10.0631 1.91156C8.85807 1.91156 7.75467 2.10756 6.75289 2.49956C5.76563 2.87704 4.90904 3.42874 4.18311 4.15467C3.45719 4.86607 2.89096 5.72993 2.48444 6.74622C2.09244 7.76252 1.89644 8.89496 1.89644 10.1436C1.89644 11.3631 2.08519 12.452 2.46267 13.4102C2.85467 14.3684 3.39911 15.1887 4.096 15.8711C4.79289 16.5535 5.60593 17.0689 6.53511 17.4173C7.4643 17.7803 8.46607 17.9618 9.54044 17.9618C10.7745 17.9618 11.7473 17.8021 12.4587 17.4827C13.1701 17.1778 13.7653 16.8439 14.2444 16.4809L15.0067 17.548C14.6147 17.8529 14.1719 18.1287 13.6782 18.3756C13.1991 18.6369 12.6256 18.8474 11.9578 19.0071C11.2899 19.1668 10.4841 19.2467 9.54044 19.2467ZM9.01778 13.6933C9.62756 13.6933 10.1865 13.4973 10.6947 13.1053C11.2028 12.6988 11.6021 12.1544 11.8924 11.472C12.1973 10.7751 12.3498 9.99837 12.3498 9.14178C12.3498 8.56104 12.2409 8.06015 12.0231 7.63911C11.8199 7.20356 11.5222 6.86963 11.1302 6.63733C10.7527 6.39052 10.3027 6.26711 9.78 6.26711C9.25733 6.26711 8.77822 6.38326 8.34267 6.61556C7.92163 6.83333 7.55141 7.14548 7.232 7.552C6.92711 7.95852 6.68756 8.43037 6.51333 8.96756C6.33911 9.50474 6.252 10.0855 6.252 10.7098C6.252 11.3486 6.36089 11.893 6.57867 12.3431C6.79644 12.7787 7.10859 13.1126 7.51511 13.3449C7.93615 13.5772 8.43704 13.6933 9.01778 13.6933Z" fill="black"/>
</svg>
