<svg width="20" height="20" viewBox="0 0 20 20" fill="none" xmlns="http://www.w3.org/2000/svg">
<g id="fi_2907776">
<path id="Vector" d="M15.95 18.125H4.05C3.47315 18.125 2.91993 17.8958 2.51204 17.488C2.10415 17.0801 1.875 16.5268 1.875 15.95V4.05C1.875 3.47315 2.10415 2.91993 2.51204 2.51204C2.91993 2.10415 3.47315 1.875 4.05 1.875H15.95C16.5268 1.875 17.0801 2.10415 17.488 2.51204C17.8958 2.91993 18.125 3.47315 18.125 4.05V15.95C18.125 16.5268 17.8958 17.0801 17.488 17.488C17.0801 17.8958 16.5268 18.125 15.95 18.125ZM4.05 3.125C3.80467 3.125 3.5694 3.22246 3.39593 3.39593C3.22246 3.5694 3.125 3.80467 3.125 4.05V15.95C3.125 16.1953 3.22246 16.4306 3.39593 16.6041C3.5694 16.7775 3.80467 16.875 4.05 16.875H15.95C16.1953 16.875 16.4306 16.7775 16.6041 16.6041C16.7775 16.4306 16.875 16.1953 16.875 15.95V4.05C16.875 3.80467 16.7775 3.5694 16.6041 3.39593C16.4306 3.22246 16.1953 3.125 15.95 3.125H4.05Z" fill="black"/>
<path id="Vector_2" d="M2.50041 15.675C2.41038 15.6748 2.32145 15.6553 2.23954 15.6179C2.15764 15.5806 2.08464 15.5262 2.02541 15.4584C1.9721 15.3956 1.93174 15.3228 1.90665 15.2443C1.88155 15.1659 1.87222 15.0832 1.87919 15.0011C1.88616 14.919 1.9093 14.8391 1.94726 14.766C1.98523 14.6929 2.03727 14.628 2.10041 14.575L6.36708 10.975C6.68564 10.7062 7.09339 10.5664 7.5099 10.5834C7.92641 10.6004 8.32144 10.7728 8.61708 11.0667L10.6421 13.0917C10.7175 13.1563 10.8136 13.1917 10.9129 13.1917C11.0122 13.1917 11.1083 13.1563 11.1837 13.0917L13.1504 11.6667C13.4418 11.4424 13.7993 11.3207 14.1671 11.3207C14.5349 11.3207 14.8923 11.4424 15.1837 11.6667L17.8921 13.825C17.9566 13.8765 18.0104 13.9401 18.0504 14.0124C18.0904 14.0846 18.1157 14.164 18.125 14.246C18.1343 14.328 18.1273 14.4111 18.1045 14.4904C18.0817 14.5697 18.0435 14.6438 17.9921 14.7084C17.9406 14.7729 17.877 14.8267 17.8048 14.8667C17.7325 14.9067 17.6531 14.932 17.5711 14.9413C17.4891 14.9506 17.406 14.9436 17.3267 14.9208C17.2474 14.898 17.1733 14.8598 17.1087 14.8084L14.4087 12.6417C14.3359 12.5856 14.2465 12.5552 14.1546 12.5552C14.0626 12.5552 13.9733 12.5856 13.9004 12.6417L11.9337 14.1667C11.6136 14.4071 11.2177 14.5242 10.8183 14.4967C10.4189 14.4691 10.0428 14.2988 9.75874 14.0167L7.73374 11.95C7.65718 11.8809 7.55771 11.8427 7.45458 11.8427C7.35144 11.8427 7.25197 11.8809 7.17541 11.95L2.90041 15.5334C2.78878 15.6277 2.64655 15.6781 2.50041 15.675Z" fill="black"/>
<path id="Vector_3" d="M12.5007 9.79183C12.0474 9.79183 11.6043 9.65743 11.2275 9.40561C10.8506 9.1538 10.5569 8.79589 10.3834 8.37715C10.21 7.9584 10.1646 7.49762 10.253 7.05308C10.3414 6.60854 10.5597 6.20021 10.8802 5.87971C11.2007 5.55922 11.609 5.34096 12.0536 5.25253C12.4981 5.16411 12.9589 5.20949 13.3776 5.38294C13.7964 5.55639 14.1543 5.85012 14.4061 6.22698C14.6579 6.60384 14.7923 7.04691 14.7923 7.50016C14.7923 8.10795 14.5509 8.69085 14.1211 9.12062C13.6913 9.55039 13.1084 9.79183 12.5007 9.79183ZM12.5007 6.4585C12.2946 6.4585 12.0932 6.51959 11.9219 6.63405C11.7506 6.74851 11.6171 6.9112 11.5383 7.10153C11.4594 7.29187 11.4388 7.50132 11.479 7.70338C11.5192 7.90545 11.6184 8.09105 11.7641 8.23673C11.9098 8.38241 12.0954 8.48162 12.2974 8.52182C12.4995 8.56201 12.7089 8.54138 12.8993 8.46254C13.0896 8.3837 13.2523 8.25018 13.3668 8.07888C13.4812 7.90758 13.5423 7.70619 13.5423 7.50016C13.5423 7.2239 13.4326 6.95894 13.2372 6.76359C13.0419 6.56824 12.7769 6.4585 12.5007 6.4585Z" fill="black"/>
</g>
</svg>
