<svg width="86" height="86" viewBox="0 0 86 86" fill="none" xmlns="http://www.w3.org/2000/svg">
<g id="Group 1123">
<path id="Ellipse 504" d="M86 43C86 66.7482 66.7482 86 43 86C19.2518 86 0 66.7482 0 43C0 19.2518 19.2518 0 43 0C66.7482 0 86 19.2518 86 43ZM4.3 43C4.3 64.3734 21.6266 81.7 43 81.7C64.3734 81.7 81.7 64.3734 81.7 43C81.7 21.6266 64.3734 4.3 43 4.3C21.6266 4.3 4.3 21.6266 4.3 43Z" fill="#E8E8E8"/>
<path id="Ellipse 505" d="M45.032 0.0480382C56.4236 0.586955 67.1345 5.62908 74.8085 14.0652C82.4824 22.5013 86.4909 33.6404 85.952 45.032C85.413 56.4236 80.3709 67.1345 71.9348 74.8085C63.4987 82.4824 52.3596 86.4909 40.968 85.952L41.1712 81.6568C51.4236 82.1418 61.4488 78.5342 69.0413 71.6276C76.6338 64.721 81.1717 55.0812 81.6568 44.8288C82.1418 34.5764 78.5342 24.5512 71.6276 16.9587C64.721 9.36617 55.0812 4.82826 44.8288 4.34323L45.032 0.0480382Z" fill="#FF7541"/>
</g>
</svg>
