<svg width="24" height="25" viewBox="0 0 24 25" fill="none" xmlns="http://www.w3.org/2000/svg">
<path d="M5 22.9761C4.45 22.9761 3.97917 22.7802 3.5875 22.3886C3.19583 21.9969 3 21.5261 3 20.9761V6.97607C3 6.42607 3.19583 5.95524 3.5875 5.56357C3.97917 5.17191 4.45 4.97607 5 4.97607H6V2.97607H8V4.97607H16V2.97607H18V4.97607H19C19.55 4.97607 20.0208 5.17191 20.4125 5.56357C20.8042 5.95524 21 6.42607 21 6.97607V20.9761C21 21.5261 20.8042 21.9969 20.4125 22.3886C20.0208 22.7802 19.55 22.9761 19 22.9761H5ZM5 20.9761H19V10.9761H5V20.9761ZM5 8.97607H19V6.97607H5V8.97607ZM12 14.9761C11.7167 14.9761 11.4792 14.8802 11.2875 14.6886C11.0958 14.4969 11 14.2594 11 13.9761C11 13.6927 11.0958 13.4552 11.2875 13.2636C11.4792 13.0719 11.7167 12.9761 12 12.9761C12.2833 12.9761 12.5208 13.0719 12.7125 13.2636C12.9042 13.4552 13 13.6927 13 13.9761C13 14.2594 12.9042 14.4969 12.7125 14.6886C12.5208 14.8802 12.2833 14.9761 12 14.9761ZM8 14.9761C7.71667 14.9761 7.47917 14.8802 7.2875 14.6886C7.09583 14.4969 7 14.2594 7 13.9761C7 13.6927 7.09583 13.4552 7.2875 13.2636C7.47917 13.0719 7.71667 12.9761 8 12.9761C8.28333 12.9761 8.52083 13.0719 8.7125 13.2636C8.90417 13.4552 9 13.6927 9 13.9761C9 14.2594 8.90417 14.4969 8.7125 14.6886C8.52083 14.8802 8.28333 14.9761 8 14.9761ZM16 14.9761C15.7167 14.9761 15.4792 14.8802 15.2875 14.6886C15.0958 14.4969 15 14.2594 15 13.9761C15 13.6927 15.0958 13.4552 15.2875 13.2636C15.4792 13.0719 15.7167 12.9761 16 12.9761C16.2833 12.9761 16.5208 13.0719 16.7125 13.2636C16.9042 13.4552 17 13.6927 17 13.9761C17 14.2594 16.9042 14.4969 16.7125 14.6886C16.5208 14.8802 16.2833 14.9761 16 14.9761ZM12 18.9761C11.7167 18.9761 11.4792 18.8802 11.2875 18.6886C11.0958 18.4969 11 18.2594 11 17.9761C11 17.6927 11.0958 17.4552 11.2875 17.2636C11.4792 17.0719 11.7167 16.9761 12 16.9761C12.2833 16.9761 12.5208 17.0719 12.7125 17.2636C12.9042 17.4552 13 17.6927 13 17.9761C13 18.2594 12.9042 18.4969 12.7125 18.6886C12.5208 18.8802 12.2833 18.9761 12 18.9761ZM8 18.9761C7.71667 18.9761 7.47917 18.8802 7.2875 18.6886C7.09583 18.4969 7 18.2594 7 17.9761C7 17.6927 7.09583 17.4552 7.2875 17.2636C7.47917 17.0719 7.71667 16.9761 8 16.9761C8.28333 16.9761 8.52083 17.0719 8.7125 17.2636C8.90417 17.4552 9 17.6927 9 17.9761C9 18.2594 8.90417 18.4969 8.7125 18.6886C8.52083 18.8802 8.28333 18.9761 8 18.9761ZM16 18.9761C15.7167 18.9761 15.4792 18.8802 15.2875 18.6886C15.0958 18.4969 15 18.2594 15 17.9761C15 17.6927 15.0958 17.4552 15.2875 17.2636C15.4792 17.0719 15.7167 16.9761 16 16.9761C16.2833 16.9761 16.5208 17.0719 16.7125 17.2636C16.9042 17.4552 17 17.6927 17 17.9761C17 18.2594 16.9042 18.4969 16.7125 18.6886C16.5208 18.8802 16.2833 18.9761 16 18.9761Z" fill="black"/>
</svg>
