<svg width="15" height="15" viewBox="0 0 15 15" fill="none" xmlns="http://www.w3.org/2000/svg">
<path d="M6.56872 8.67952L5.23647 7.34728C5.12287 7.23367 4.97829 7.17687 4.80272 7.17687C4.62715 7.17687 4.48257 7.23367 4.36897 7.34728C4.25537 7.46088 4.19856 7.60546 4.19856 7.78103C4.19856 7.9566 4.25537 8.10118 4.36897 8.21478L6.13496 9.98078C6.25889 10.1047 6.40348 10.1667 6.56872 10.1667C6.73396 10.1667 6.87854 10.1047 7.00247 9.98078L10.5035 6.47977C10.6171 6.36617 10.6739 6.22158 10.6739 6.04602C10.6739 5.87045 10.6171 5.72586 10.5035 5.61226C10.3899 5.49866 10.2453 5.44186 10.0697 5.44186C9.89416 5.44186 9.74957 5.49866 9.63597 5.61226L6.56872 8.67952ZM7.43622 13.7606C6.57904 13.7606 5.7735 13.598 5.0196 13.2727C4.26569 12.9473 3.6099 12.5058 3.05222 11.9482C2.49453 11.3905 2.05303 10.7347 1.72772 9.98078C1.4024 9.22687 1.23975 8.42133 1.23975 7.56415C1.23975 6.70697 1.4024 5.90143 1.72772 5.14753C2.05303 4.39362 2.49453 3.73783 3.05222 3.18015C3.6099 2.62246 4.26569 2.18096 5.0196 1.85565C5.7735 1.53033 6.57904 1.36768 7.43622 1.36768C8.2934 1.36768 9.09894 1.53033 9.85285 1.85565C10.6068 2.18096 11.2625 2.62246 11.8202 3.18015C12.3779 3.73783 12.8194 4.39362 13.1447 5.14753C13.47 5.90143 13.6327 6.70697 13.6327 7.56415C13.6327 8.42133 13.47 9.22687 13.1447 9.98078C12.8194 10.7347 12.3779 11.3905 11.8202 11.9482C11.2625 12.5058 10.6068 12.9473 9.85285 13.2727C9.09894 13.598 8.2934 13.7606 7.43622 13.7606ZM7.43622 12.5213C8.8201 12.5213 9.99227 12.0411 10.9527 11.0807C11.9132 10.1202 12.3934 8.94803 12.3934 7.56415C12.3934 6.18027 11.9132 5.00811 10.9527 4.04765C9.99227 3.0872 8.8201 2.60697 7.43622 2.60697C6.05234 2.60697 4.88018 3.0872 3.91972 4.04765C2.95927 5.00811 2.47904 6.18027 2.47904 7.56415C2.47904 8.94803 2.95927 10.1202 3.91972 11.0807C4.88018 12.0411 6.05234 12.5213 7.43622 12.5213Z" fill="black"/>
</svg>
