<svg width="167" height="27" viewBox="0 0 167 27" fill="none" xmlns="http://www.w3.org/2000/svg">
<circle cx="7.71429" cy="15.4286" r="7.71429" fill="#FF7541"/>
<circle cx="20.5716" cy="5.14286" r="5.14286" fill="#FFBD41"/>
<circle cx="23.7853" cy="19.9284" r="7.07143" fill="#71C4CF"/>
<path d="M59.5229 5.45728V22.4287H55.6143V14.6373L55.7429 9.41728H55.6914L51.5 22.4287H47.9257L43.7343 9.41728H43.6829L43.8114 14.6373V22.4287H39.8771V5.45728H46.1771L48.8514 14.0973L49.8029 17.6973H49.8543L50.8314 14.123L53.48 5.45728H59.5229ZM70.0967 14.2773C70.0967 13.6773 69.9252 13.2059 69.5824 12.863C69.2567 12.503 68.8109 12.323 68.2452 12.323C67.6795 12.323 67.1909 12.4687 66.7795 12.7601C66.3852 13.0344 66.1109 13.5316 65.9567 14.2516L62.2538 13.3773C62.4938 12.143 63.1281 11.1573 64.1567 10.4201C65.1852 9.683 66.6338 9.31442 68.5024 9.31442C69.7538 9.31442 70.8167 9.503 71.6909 9.88014C72.5824 10.2401 73.2595 10.7887 73.7224 11.5259C74.2024 12.2459 74.4424 13.1373 74.4424 14.2001V18.9059C74.4424 19.5744 74.7424 19.9087 75.3424 19.9087C75.6509 19.9087 75.8995 19.8744 76.0881 19.8059L75.8309 22.3001C75.3167 22.5401 74.6909 22.6601 73.9538 22.6601C73.2852 22.6601 72.6938 22.5573 72.1795 22.3516C71.6652 22.1287 71.2624 21.803 70.9709 21.3744C70.6795 20.9287 70.5338 20.3716 70.5338 19.703V19.5487L71.0224 19.3687C71.0224 20.1059 70.7995 20.723 70.3538 21.2201C69.9252 21.7173 69.3595 22.0859 68.6567 22.3259C67.9709 22.5659 67.2509 22.6859 66.4967 22.6859C65.6224 22.6859 64.8595 22.5487 64.2081 22.2744C63.5567 22.0001 63.0509 21.6059 62.6909 21.0916C62.3481 20.5601 62.1767 19.9087 62.1767 19.1373C62.1767 18.2116 62.4509 17.4487 62.9995 16.8487C63.5652 16.2316 64.4481 15.803 65.6481 15.563L70.5081 14.5601L70.4824 16.8744L68.0138 17.3887C67.4995 17.4916 67.1138 17.6459 66.8567 17.8516C66.6167 18.0401 66.4967 18.3316 66.4967 18.7259C66.4967 19.103 66.6338 19.3859 66.9081 19.5744C67.1824 19.763 67.5081 19.8573 67.8852 19.8573C68.1767 19.8573 68.4509 19.8144 68.7081 19.7287C68.9824 19.643 69.2224 19.5144 69.4281 19.343C69.6338 19.1544 69.7967 18.923 69.9167 18.6487C70.0367 18.3744 70.0967 18.0487 70.0967 17.6716V14.2773ZM91.9307 9.57157L85.7593 16.1544L84.9364 16.3859L81.2593 20.5001L81.2335 16.0259L87.0707 9.57157H91.9307ZM82.185 4.12014V22.4287H77.8135V4.12014H82.185ZM86.4278 13.4287L92.2135 22.4287H87.3793L83.5735 16.0001L86.4278 13.4287ZM99.4059 22.6859C97.9831 22.6859 96.7488 22.4201 95.7031 21.8887C94.6745 21.3573 93.8773 20.5944 93.3116 19.6001C92.7459 18.6059 92.4631 17.4059 92.4631 16.0001C92.4631 14.5944 92.7459 13.3944 93.3116 12.4001C93.8773 11.4059 94.6659 10.643 95.6773 10.1116C96.7059 9.58014 97.8802 9.31442 99.2002 9.31442C100.554 9.31442 101.703 9.58014 102.646 10.1116C103.606 10.6259 104.334 11.3459 104.832 12.2716C105.329 13.1801 105.577 14.2259 105.577 15.4087C105.577 15.7173 105.569 16.0259 105.552 16.3344C105.534 16.643 105.509 16.9001 105.474 17.1059H95.2916V14.7659H103.546L101.463 15.563C101.463 14.5344 101.274 13.7459 100.897 13.1973C100.537 12.6487 99.9716 12.3744 99.2002 12.3744C98.6516 12.3744 98.1802 12.503 97.7859 12.7601C97.4088 13.0173 97.1173 13.4201 96.9116 13.9687C96.7231 14.5173 96.6288 15.2201 96.6288 16.0773C96.6288 16.9173 96.7402 17.603 96.9631 18.1344C97.1859 18.6487 97.5031 19.0259 97.9145 19.2659C98.3259 19.4887 98.8231 19.6001 99.4059 19.6001C100.057 19.6001 100.572 19.4716 100.949 19.2144C101.343 18.9573 101.634 18.5973 101.823 18.1344L105.32 19.2916C105.08 20.0287 104.66 20.6544 104.06 21.1687C103.477 21.6659 102.774 22.043 101.952 22.3001C101.146 22.5573 100.297 22.6859 99.4059 22.6859ZM113.474 22.6859C112.189 22.6859 111.014 22.4373 109.951 21.9401C108.889 21.443 108.049 20.7401 107.431 19.8316L109.334 18.1859C109.711 18.8887 110.251 19.4544 110.954 19.883C111.674 20.2944 112.531 20.5001 113.526 20.5001C114.314 20.5001 114.94 20.363 115.403 20.0887C115.866 19.8144 116.097 19.4287 116.097 18.9316C116.097 18.6059 115.986 18.323 115.763 18.083C115.557 17.8259 115.154 17.6287 114.554 17.4916L111.854 16.9259C110.483 16.6516 109.506 16.2144 108.923 15.6144C108.34 14.9973 108.049 14.2173 108.049 13.2744C108.049 12.5716 108.254 11.9201 108.666 11.3201C109.077 10.7201 109.677 10.2401 110.466 9.88014C111.271 9.503 112.231 9.31442 113.346 9.31442C114.631 9.31442 115.729 9.54585 116.637 10.0087C117.546 10.4544 118.24 11.0973 118.72 11.9373L116.817 13.5316C116.491 12.8459 116.011 12.3401 115.377 12.0144C114.743 11.6716 114.083 11.5001 113.397 11.5001C112.849 11.5001 112.377 11.5687 111.983 11.7059C111.589 11.843 111.289 12.0316 111.083 12.2716C110.877 12.5116 110.774 12.7944 110.774 13.1201C110.774 13.463 110.903 13.763 111.16 14.0201C111.417 14.2773 111.88 14.4744 112.549 14.6116L115.48 15.2287C116.714 15.4687 117.58 15.8801 118.077 16.463C118.591 17.0287 118.849 17.723 118.849 18.5459C118.849 19.3687 118.634 20.0973 118.206 20.7316C117.777 21.3487 117.16 21.8287 116.354 22.1716C115.549 22.5144 114.589 22.6859 113.474 22.6859ZM125.953 5.79157V18.5716C125.953 19.2059 126.116 19.6687 126.442 19.9601C126.785 20.2516 127.239 20.3973 127.805 20.3973C128.268 20.3973 128.67 20.3287 129.013 20.1916C129.356 20.0373 129.673 19.8316 129.965 19.5744L130.582 21.5801C130.188 21.923 129.699 22.1973 129.116 22.403C128.55 22.5916 127.916 22.6859 127.213 22.6859C126.476 22.6859 125.799 22.5659 125.182 22.3259C124.565 22.0859 124.085 21.7001 123.742 21.1687C123.399 20.6201 123.219 19.9087 123.202 19.0344V6.563L125.953 5.79157ZM130.376 9.57157V11.7316H120.733V9.57157H130.376ZM140.604 14.1744C140.604 13.3173 140.364 12.6573 139.884 12.1944C139.421 11.7144 138.779 11.4744 137.956 11.4744C137.184 11.4744 136.524 11.6544 135.976 12.0144C135.427 12.3744 135.024 12.9573 134.767 13.763L132.453 12.7859C132.779 11.7401 133.413 10.9001 134.356 10.2659C135.316 9.63157 136.55 9.31442 138.059 9.31442C139.087 9.31442 139.996 9.48585 140.784 9.82871C141.573 10.1544 142.19 10.6516 142.636 11.3201C143.099 11.9887 143.33 12.8459 143.33 13.8916V19.6259C143.33 20.2601 143.647 20.5773 144.281 20.5773C144.59 20.5773 144.89 20.5344 145.181 20.4487L145.027 22.3516C144.633 22.5401 144.136 22.6344 143.536 22.6344C142.987 22.6344 142.49 22.5401 142.044 22.3516C141.616 22.1459 141.273 21.8459 141.016 21.4516C140.776 21.0401 140.656 20.5344 140.656 19.9344V19.7544L141.221 19.7287C141.067 20.3973 140.75 20.9544 140.27 21.4001C139.79 21.8287 139.233 22.1544 138.599 22.3773C137.964 22.583 137.321 22.6859 136.67 22.6859C135.864 22.6859 135.136 22.5573 134.484 22.3001C133.85 22.043 133.344 21.6573 132.967 21.143C132.607 20.6116 132.427 19.9601 132.427 19.1887C132.427 18.2287 132.736 17.4401 133.353 16.823C133.987 16.2059 134.879 15.7859 136.027 15.563L141.016 14.5859L140.99 16.5144L137.364 17.2601C136.644 17.3973 136.104 17.5944 135.744 17.8516C135.384 18.1087 135.204 18.4859 135.204 18.983C135.204 19.463 135.384 19.8487 135.744 20.1401C136.121 20.4144 136.619 20.5516 137.236 20.5516C137.664 20.5516 138.076 20.5001 138.47 20.3973C138.881 20.2944 139.25 20.1316 139.576 19.9087C139.901 19.6687 140.15 19.3687 140.321 19.0087C140.51 18.6316 140.604 18.1859 140.604 17.6716V14.1744ZM153.189 3.60585C153.72 3.60585 154.2 3.66585 154.629 3.78585C155.075 3.88871 155.409 4.03443 155.632 4.223L155.118 6.203C154.929 6.083 154.715 5.99728 154.475 5.94585C154.235 5.87728 153.96 5.843 153.652 5.843C152.949 5.843 152.392 6.00585 151.98 6.33157C151.586 6.65728 151.389 7.18871 151.389 7.92585V9.803L151.466 10.4973V22.4287H148.715V7.72014C148.715 7.06871 148.809 6.48585 148.998 5.97157C149.203 5.45728 149.503 5.02871 149.898 4.68585C150.292 4.32585 150.763 4.06014 151.312 3.88871C151.878 3.70014 152.503 3.60585 153.189 3.60585ZM155.555 9.57157V11.7316H146.298V9.57157H155.555ZM163.372 3.60585C163.903 3.60585 164.383 3.66585 164.812 3.78585C165.258 3.88871 165.592 4.03443 165.815 4.223L165.3 6.203C165.112 6.083 164.898 5.99728 164.658 5.94585C164.418 5.87728 164.143 5.843 163.835 5.843C163.132 5.843 162.575 6.00585 162.163 6.33157C161.769 6.65728 161.572 7.18871 161.572 7.92585V9.803L161.649 10.4973V22.4287H158.898V7.72014C158.898 7.06871 158.992 6.48585 159.18 5.97157C159.386 5.45728 159.686 5.02871 160.08 4.68585C160.475 4.32585 160.946 4.06014 161.495 3.88871C162.06 3.70014 162.686 3.60585 163.372 3.60585ZM165.738 9.57157V11.7316H156.48V9.57157H165.738Z" fill="black"/>
</svg>
